<svg width="21" height="20" viewBox="0 0 21 20" fill="none" xmlns="http://www.w3.org/2000/svg">
<path fill-rule="evenodd" clip-rule="evenodd" d="M10.5 1.66699C10.279 1.66699 10.067 1.75479 9.91074 1.91107C9.75446 2.06735 9.66667 2.27931 9.66667 2.50033V4.16699H4.66667C4.22464 4.16699 3.80072 4.34259 3.48816 4.65515C3.17559 4.96771 3 5.39163 3 5.83366V16.667C3 17.109 3.17559 17.5329 3.48816 17.8455C3.80072 18.1581 4.22464 18.3337 4.66667 18.3337H16.3333C16.7754 18.3337 17.1993 18.1581 17.5118 17.8455C17.8244 17.5329 18 17.109 18 16.667V5.83366C18 5.39163 17.8244 4.96771 17.5118 4.65515C17.1993 4.34259 16.7754 4.16699 16.3333 4.16699H11.3333V2.50033C11.3333 2.27931 11.2455 2.06735 11.0893 1.91107C10.933 1.75479 10.721 1.66699 10.5 1.66699ZM11.3333 4.16699V11.5237L12.8567 10.0003C13.0129 9.84396 13.2249 9.75607 13.446 9.75599C13.667 9.75591 13.879 9.84365 14.0354 9.99991C14.1918 10.1562 14.2797 10.3681 14.2798 10.5892C14.2798 10.8103 14.1921 11.0223 14.0358 11.1787L11.2358 13.9778C11.0405 14.173 10.7757 14.2826 10.4996 14.2826C10.2235 14.2826 9.95866 14.173 9.76333 13.9778L6.96417 11.1787C6.8868 11.1012 6.82543 11.0093 6.78358 10.9082C6.74173 10.807 6.72021 10.6987 6.72025 10.5892C6.72029 10.4797 6.74188 10.3714 6.78381 10.2703C6.82573 10.1691 6.88716 10.0773 6.96458 9.99991C7.04201 9.92254 7.13391 9.86118 7.23505 9.81932C7.33619 9.77747 7.44459 9.75595 7.55404 9.75599C7.6635 9.75603 7.77188 9.77763 7.87299 9.81955C7.9741 9.86147 8.06596 9.9229 8.14333 10.0003L9.66667 11.5237V4.16699H11.3333Z" fill="white"/>
</svg>
