<svg width="28" height="18" viewBox="0 0 28 18" fill="none" xmlns="http://www.w3.org/2000/svg">
<g filter="url(#filter0_d_1323_11183)">
<path d="M6.9862 1.37931V1.41418C6.9862 1.4258 6.9862 1.43161 6.9862 1.43161C6.99783 1.43161 7.00364 1.43742 7.00364 1.44904V1.48391H7.02107L7.12566 1.76282C7.24187 2.09983 6.93972 3.14575 6.2192 4.90056C5.4522 6.77158 5.09775 8.23005 5.15586 9.27596C5.28369 10.0197 5.90543 9.42122 7.02107 7.48047C7.90428 5.96971 8.75845 4.31368 9.58356 2.51239C9.68815 2.26834 9.79855 2.01848 9.91476 1.76282C10.031 1.49553 10.1762 1.27472 10.3506 1.10041C10.7341 0.68204 11.1989 0.571637 11.7451 0.769198C11.931 0.548395 12.146 0.397318 12.3901 0.31597C12.6458 0.234621 12.884 0.217189 13.1048 0.263674C13.3372 0.310159 13.5348 0.420561 13.6975 0.59488C13.8602 0.757577 13.9473 0.978381 13.959 1.25729C13.9938 1.48972 13.8718 2.04173 13.5929 2.91332C13.3256 3.78491 13.0757 4.58097 12.8433 5.30149C12.6109 6.02201 12.3727 6.80644 12.1286 7.65479C11.5359 9.66527 11.0653 11.5595 10.7166 13.3376C10.705 13.7095 10.5423 14.0174 10.2285 14.2615C9.92638 14.5055 9.58356 14.6624 9.20005 14.7321C8.82817 14.8135 8.47373 14.8019 8.13671 14.6973C7.72996 14.5811 7.51497 14.2905 7.49173 13.8257C7.49173 13.6978 7.48592 13.57 7.4743 13.4422C7.49754 13.8373 7.21282 14.1743 6.62014 14.4532C6.45744 14.5346 6.30636 14.6101 6.16691 14.6798C5.35342 14.9239 4.49926 14.8716 3.60442 14.523C3.18605 14.3486 2.80836 14.1162 2.47135 13.8257C2.14595 13.5235 1.91934 13.1691 1.7915 12.7623C1.38476 11.4608 1.4603 9.75243 2.01812 7.63736C2.25054 6.7309 2.53526 5.84769 2.87228 4.98772C3.2093 4.12774 3.45334 3.50601 3.60442 3.1225C3.76712 2.739 3.88333 2.47752 3.95306 2.33807C4.02278 2.18699 4.09832 2.04173 4.17967 1.90227C4.37723 1.50715 4.54574 1.23986 4.6852 1.10041L4.89438 0.908654C4.91762 0.885412 4.94086 0.87379 4.96411 0.87379C4.98735 0.862169 5.0164 0.844737 5.05127 0.821494C5.14424 0.763388 5.24302 0.722714 5.34761 0.699472L5.59165 0.647176H5.69625C6.03326 0.600691 6.32379 0.670418 6.56784 0.856359C6.56784 0.86798 6.57946 0.87379 6.6027 0.87379L6.74216 0.995813L6.79445 1.04811L6.84675 1.11784C6.84675 1.12946 6.84675 1.13527 6.84675 1.13527C6.85837 1.13527 6.86418 1.14108 6.86418 1.1527L6.88161 1.17013V1.205C6.89323 1.205 6.89905 1.21081 6.89905 1.22243V1.23986C6.91067 1.25148 6.92229 1.25729 6.93391 1.25729V1.27472C6.93391 1.28634 6.93391 1.29216 6.93391 1.29216C6.94553 1.29216 6.95134 1.29797 6.95134 1.30959C6.95134 1.30959 6.95715 1.3154 6.96877 1.32702V1.34445C6.96877 1.35607 6.97458 1.36769 6.9862 1.37931ZM7.45687 12.989V12.9367C7.44524 12.9483 7.43943 12.9948 7.43943 13.0761C7.43943 13.0412 7.44524 13.018 7.45687 13.0064V12.989ZM19.7911 1.27472C19.9074 1.5885 19.9713 1.79768 19.9829 1.90227C20.0061 2.12308 19.9248 2.30902 19.7389 2.46009C19.7389 2.47171 19.7272 2.48915 19.704 2.51239C19.8086 3.05859 19.8318 3.56992 19.7737 4.04639C19.7156 4.52286 19.6401 4.9819 19.5471 5.42351C20.1747 4.35436 20.6744 3.56992 21.0462 3.07021C21.8132 2.03592 22.528 1.29797 23.1904 0.856359C23.4112 0.728524 23.6785 0.635554 23.9922 0.577448C24.3176 0.507721 24.6256 0.4961 24.9161 0.542585C25.2067 0.58907 25.4449 0.705282 25.6308 0.891222C25.8284 1.07716 25.9156 1.35607 25.8923 1.72795C25.5669 3.9941 25.2183 6.10917 24.8464 8.07316C24.4745 10.0255 23.9922 11.8907 23.3995 13.6688V13.7037H23.3821C23.2427 14.122 22.894 14.4184 22.3362 14.5927C21.79 14.7554 21.3019 14.767 20.8719 14.6275C20.349 14.4765 20.1107 14.1976 20.1572 13.7908L20.1747 13.3899V13.355C20.2211 13.0761 20.2444 12.8902 20.2444 12.7972C20.256 12.6926 20.2676 12.6171 20.2792 12.5706C20.3025 12.2684 20.349 11.9895 20.4187 11.7339C20.5 11.4666 20.5582 11.2516 20.593 11.0889C20.6279 10.9262 20.6627 10.7751 20.6976 10.6356C20.7325 10.4846 20.7557 10.3684 20.7673 10.287C20.3257 10.8913 20.012 11.2574 19.826 11.3852C19.3612 11.7106 18.8208 11.8617 18.2048 11.8384C17.8213 11.8152 17.6005 11.728 17.5424 11.577C17.4262 11.2516 17.3449 11.0598 17.2984 11.0017C17.2287 10.9087 17.1706 10.7519 17.1241 10.5311C16.8219 11.8675 16.5256 12.8146 16.235 13.3725C16.1188 13.5933 16.0026 13.7908 15.8864 13.9651C15.7237 14.3486 15.3518 14.6159 14.7708 14.767C14.2246 14.9181 13.7016 14.9065 13.2019 14.7321C12.6906 14.5694 12.4465 14.2789 12.4698 13.8605C12.493 13.4422 12.5802 12.9192 12.7312 12.2917C12.8707 11.6525 13.0392 10.9785 13.2368 10.2696C13.8294 8.02667 14.2478 6.56821 14.4919 5.89417C14.7475 5.22014 14.9625 4.69137 15.1368 4.30787C15.5552 3.41303 15.9271 2.76224 16.2525 2.3555C16.6127 1.62336 17.2112 1.18175 18.048 1.03068C18.7104 0.902843 19.2914 0.984192 19.7911 1.27472Z" fill="white"/>
</g>
<defs>
<filter id="filter0_d_1323_11183" x="0.0567588" y="0.194336" width="26.9951" height="17.1008" filterUnits="userSpaceOnUse" color-interpolation-filters="sRGB">
<feFlood flood-opacity="0" result="BackgroundImageFix"/>
<feColorMatrix in="SourceAlpha" type="matrix" values="0 0 0 0 0 0 0 0 0 0 0 0 0 0 0 0 0 0 127 0" result="hardAlpha"/>
<feOffset dy="1.12464"/>
<feGaussianBlur stdDeviation="0.562319"/>
<feComposite in2="hardAlpha" operator="out"/>
<feColorMatrix type="matrix" values="0 0 0 0 0 0 0 0 0 0 0 0 0 0 0 0 0 0 0.25 0"/>
<feBlend mode="normal" in2="BackgroundImageFix" result="effect1_dropShadow_1323_11183"/>
<feBlend mode="normal" in="SourceGraphic" in2="effect1_dropShadow_1323_11183" result="shape"/>
</filter>
</defs>
</svg>
